<?xml version="1.0" standalone="no"?>
<!DOCTYPE svg PUBLIC "-//W3C//DTD SVG 20010904//EN"
 "http://www.w3.org/TR/2001/REC-SVG-20010904/DTD/svg10.dtd">
<svg version="1.0" xmlns="http://www.w3.org/2000/svg"
 width="524.000000pt" height="524.000000pt" viewBox="0 0 524.000000 524.000000"
 preserveAspectRatio="xMidYMid meet">
<metadata>
Created by potrace 1.11, written by Peter Selinger 2001-2013
</metadata>
<g transform="translate(0.000000,524.000000) scale(0.100000,-0.100000)"
fill="#000000" stroke="none">
<path d="M2554 5211 c-23 -10 -45 -24 -48 -30 -4 -6 -33 -25 -64 -42 -31 -17
-95 -52 -142 -79 -47 -27 -119 -67 -160 -90 -41 -23 -109 -61 -150 -85 -41
-24 -102 -58 -135 -75 -33 -18 -68 -40 -79 -49 -10 -9 -48 -33 -85 -53 -181
-100 -222 -123 -291 -163 -41 -24 -106 -60 -144 -80 -38 -21 -81 -45 -95 -54
-54 -36 -139 -86 -221 -129 -47 -24 -92 -50 -100 -57 -8 -7 -37 -25 -65 -39
-27 -15 -88 -49 -135 -76 -47 -27 -120 -68 -163 -91 -42 -23 -88 -55 -102 -71
l-25 -30 0 -1286 c0 -1473 -10 -1325 97 -1382 87 -46 142 -79 198 -115 28 -18
70 -43 95 -57 124 -69 340 -194 375 -218 22 -15 67 -42 100 -59 33 -18 101
-56 150 -86 50 -30 117 -68 150 -86 33 -17 74 -41 90 -54 17 -12 59 -37 95
-55 36 -18 79 -42 95 -55 17 -12 55 -35 85 -50 30 -15 69 -38 85 -50 17 -13
53 -35 80 -50 28 -14 94 -52 147 -83 208 -122 384 -220 406 -227 23 -7 108 27
172 69 19 13 67 41 105 63 39 22 92 53 118 69 27 16 76 46 110 66 34 20 96 55
137 78 41 23 104 59 140 80 36 21 92 54 125 72 54 31 212 123 377 220 35 20
92 53 128 73 36 19 92 53 125 75 33 21 89 55 125 75 36 20 99 56 140 80 41 25
100 58 130 75 30 17 84 49 120 70 36 21 96 55 133 75 119 63 107 -94 107 1380
0 1481 14 1317 -117 1385 -43 22 -114 63 -158 90 -44 26 -138 81 -210 120 -71
40 -142 81 -156 90 -14 10 -62 36 -107 59 -44 22 -83 45 -87 51 -4 6 -41 28
-83 49 -42 22 -94 51 -116 65 -21 15 -73 44 -116 66 -43 22 -95 51 -116 66
-22 14 -73 44 -114 66 -41 21 -120 66 -175 98 -102 60 -245 141 -383 218 -42
23 -89 51 -105 62 -33 25 -226 120 -241 120 -6 0 -30 -9 -52 -19z m846 -1196
l0 -225 -260 0 -260 0 0 -1145 0 -1145 260 0 260 0 0 -225 0 -225 -765 0 -765
0 0 225 0 225 250 0 250 0 0 1145 0 1145 -250 0 -250 0 0 225 0 225 765 0 765
0 0 -225z"/>
</g>
</svg>
