<?xml version="1.0" standalone="no"?>
<!DOCTYPE svg PUBLIC "-//W3C//DTD SVG 20010904//EN"
 "http://www.w3.org/TR/2001/REC-SVG-20010904/DTD/svg10.dtd">
<svg version="1.0" xmlns="http://www.w3.org/2000/svg"
 width="260.000000pt" height="260.000000pt" viewBox="0 0 260.000000 260.000000"
 preserveAspectRatio="xMidYMid meet">
<metadata>
Created by potrace 1.11, written by Peter Selinger 2001-2013
</metadata>
<g transform="translate(0.000000,260.000000) scale(0.100000,-0.100000)"
fill="#000000" stroke="none">
<path d="M1587 2586 c-4 -13 21 -41 30 -33 3 4 19 -1 35 -9 17 -9 32 -13 36
-10 8 9 36 -36 36 -59 0 -12 -6 -19 -15 -17 -17 4 -21 5 -36 3 -17 -1 -4 -31
13 -31 22 0 16 -14 -12 -27 -21 -10 -30 -9 -50 4 -31 20 -30 31 1 43 29 11 32
31 9 54 -22 23 -41 20 -70 -11 -30 -33 -29 -78 3 -114 20 -22 31 -26 76 -24
94 2 144 77 108 163 -19 47 -153 102 -164 68z"/>
<path d="M1358 2503 c-41 -43 -62 -79 -64 -108 -1 -11 -2 -28 -3 -37 0 -11 -9
-18 -21 -18 -12 0 -41 -20 -67 -45 -25 -25 -43 -45 -39 -45 3 0 -3 -16 -14
-35 -19 -34 -19 -35 0 -45 11 -6 35 -12 53 -13 22 -2 46 -16 76 -45 25 -24 54
-42 67 -42 12 0 24 -6 27 -12 5 -13 8 -12 67 24 17 11 24 8 52 -21 32 -33 86
-67 101 -63 4 1 7 -5 7 -13 0 -22 -59 -55 -99 -55 -19 0 -43 8 -53 17 -33 30
-55 25 -98 -19 -35 -37 -54 -88 -32 -88 4 0 13 -9 20 -20 10 -17 10 -23 -2
-35 -8 -8 -19 -15 -24 -15 -5 0 -17 -9 -27 -20 -10 -11 -21 -18 -25 -15 -3 2
-17 -2 -31 -8 -38 -20 -216 -15 -256 6 -29 15 -65 65 -62 83 0 4 -5 10 -11 14
-17 11 -20 68 -4 81 8 6 11 15 9 20 -15 24 84 124 103 104 3 -2 11 0 18 6 8 6
21 8 31 3 10 -4 26 -8 35 -8 9 -1 35 -21 58 -46 35 -38 41 -50 36 -75 -11 -56
-99 -101 -133 -67 -11 12 -12 17 -2 23 7 4 16 6 20 3 10 -6 16 16 11 43 -8 40
-82 68 -82 30 0 -6 -7 -19 -17 -29 -14 -16 -15 -21 -2 -46 8 -15 21 -34 30
-42 9 -8 14 -21 12 -27 -5 -13 3 -15 55 -16 44 -1 119 42 134 77 17 43 18 114
0 121 -7 2 -11 9 -8 13 9 16 -75 80 -97 74 -4 -1 -10 4 -13 11 -3 10 -18 12
-53 7 -48 -6 -91 -27 -121 -59 -27 -28 -62 -90 -56 -100 3 -5 0 -14 -7 -20
-14 -11 -15 -63 -2 -93 8 -21 -8 -24 -24 -5 -6 8 -25 13 -41 12 -17 -1 -33 2
-36 7 -3 5 -22 8 -42 8 -20 0 -68 0 -106 -1 -38 0 -74 -3 -80 -7 -6 -3 -17 -7
-24 -8 -7 -1 -24 -10 -37 -18 -14 -9 -27 -16 -31 -16 -7 1 -84 -83 -84 -92 0
-3 -12 -19 -27 -35 -33 -34 -37 -47 -18 -63 7 -6 11 -18 8 -26 -7 -19 53 -142
81 -167 13 -12 31 -17 48 -15 16 3 28 1 28 -3 0 -16 33 -18 63 -3 35 18 79 61
92 91 12 26 14 53 4 53 -5 0 -9 7 -9 16 0 20 -43 59 -82 75 -23 9 -32 8 -56
-10 -16 -11 -32 -18 -36 -14 -6 7 -8 -6 -8 -62 0 -51 0 -51 25 -62 17 -8 26
-7 36 5 12 13 12 16 -2 27 -9 7 -17 15 -17 18 0 12 34 47 45 47 17 0 55 -44
55 -64 0 -23 -32 -64 -47 -59 -6 2 -17 -2 -24 -9 -20 -22 -64 -9 -104 32 -56
57 -51 131 13 195 19 19 41 30 62 31 18 1 35 6 39 10 7 11 91 12 91 2 0 -5 6
-8 14 -8 23 0 27 29 6 50 -16 16 -18 25 -10 40 12 23 11 23 45 10 20 -8 25
-15 21 -36 -3 -14 -10 -31 -15 -38 -7 -8 -3 -26 14 -59 l24 -48 -21 -19 c-18
-17 -19 -21 -7 -36 20 -24 78 -47 122 -49 30 -1 43 6 69 32 22 23 34 29 39 21
7 -11 24 -15 82 -17 24 -1 12 -20 -20 -32 -14 -5 -27 -18 -30 -29 -3 -11 -12
-20 -19 -20 -8 0 -18 -8 -21 -17 -4 -10 -17 -32 -31 -50 -13 -18 -25 -38 -26
-46 -1 -8 -9 -26 -19 -40 -9 -15 -17 -40 -17 -57 0 -16 -4 -30 -8 -30 -11 0
-7 -134 5 -175 26 -91 147 -255 188 -255 8 0 18 -6 22 -12 11 -18 49 -38 72
-38 11 0 23 -4 26 -10 3 -5 28 -10 55 -10 27 0 51 -4 55 -9 3 -5 19 -9 36 -9
42 1 56 -23 24 -40 -19 -10 -30 -10 -46 -1 -12 6 -32 9 -45 6 -14 -2 -27 -1
-30 4 -2 4 -11 6 -19 2 -8 -3 -15 0 -15 6 0 6 -10 11 -23 11 -12 0 -32 7 -44
15 -12 8 -30 16 -40 18 -24 3 -58 31 -103 83 -71 83 -97 125 -86 142 3 6 -8
20 -25 33 l-31 22 7 -32 c8 -37 2 -39 -28 -8 -25 26 -77 62 -92 63 -5 0 -22 6
-38 12 -23 10 -34 8 -75 -15 -42 -23 -91 -63 -77 -63 3 0 -2 -16 -10 -36 -16
-39 -20 -74 -7 -74 4 0 13 -13 20 -29 15 -35 77 -68 96 -52 7 6 15 8 19 5 5
-6 46 18 79 45 12 11 14 18 7 27 -7 8 -7 14 1 19 16 10 12 21 -18 53 -41 45
-63 47 -97 12 l-29 -30 29 -30 c19 -20 32 -27 39 -20 5 5 16 10 24 10 12 0 12
-3 0 -23 -34 -50 -118 -14 -118 50 0 18 5 33 12 33 6 0 8 3 5 7 -9 9 22 43 40
43 7 0 23 6 34 13 17 9 23 10 26 0 3 -7 16 -13 29 -13 27 0 99 -66 98 -90 0
-8 6 -23 14 -32 8 -9 11 -22 7 -28 -4 -7 -2 -16 5 -20 7 -4 13 -20 13 -34 0
-15 4 -29 9 -32 5 -3 4 -12 -3 -21 -10 -12 -10 -16 2 -23 11 -7 12 -15 2 -40
-6 -16 -10 -41 -8 -55 1 -14 -1 -25 -5 -25 -11 0 -84 -140 -88 -168 -2 -20 0
-22 15 -14 10 6 27 20 37 31 11 12 25 21 33 21 7 0 13 7 13 15 0 8 5 15 11 15
7 0 17 7 23 15 6 8 20 16 31 18 11 2 31 9 44 14 14 5 37 8 52 7 26 -3 46 17
34 36 -6 10 -89 5 -107 -6 -7 -5 -19 -9 -27 -11 -8 -1 -17 -6 -20 -12 -4 -6
-12 -6 -20 -1 -12 7 -12 14 -1 42 7 18 20 40 29 48 9 8 16 24 16 35 0 11 9 25
20 30 11 6 21 17 21 25 1 8 2 21 3 28 1 9 8 8 29 -5 15 -10 29 -20 32 -24 6
-8 72 -43 82 -44 3 0 10 -3 14 -8 4 -4 15 -7 25 -7 10 0 21 -5 24 -10 4 -6 3
-10 -2 -9 -34 6 -50 -22 -27 -46 17 -16 34 -7 47 28 3 9 13 17 22 17 18 0 20
-31 4 -47 -18 -18 -2 -45 23 -41 16 2 23 10 24 26 2 28 7 34 27 27 19 -8 24
-27 23 -89 -1 -44 -4 -51 -31 -66 -33 -19 -55 -11 -55 22 0 24 -28 68 -44 68
-6 0 -18 8 -25 19 -14 18 -55 21 -72 4 -14 -14 28 -53 51 -48 11 2 20 0 20 -5
0 -5 9 -12 21 -15 16 -5 19 -12 15 -30 -5 -18 1 -30 20 -49 31 -28 56 -26 93
6 44 39 100 63 113 50 7 -7 9 -12 4 -12 -11 0 16 -25 37 -33 9 -3 17 -14 17
-22 0 -9 3 -14 8 -11 4 2 16 -2 26 -9 33 -25 26 -144 -12 -187 -8 -10 -11 -18
-7 -18 14 0 -67 -80 -95 -94 -45 -23 -200 -4 -200 24 0 5 -8 11 -19 15 -35 11
-48 112 -20 160 20 33 49 54 49 34 0 -6 7 -6 20 1 14 8 20 8 20 0 0 -6 5 -8
12 -4 17 11 79 5 95 -8 8 -6 13 -33 13 -69 0 -47 -4 -60 -19 -69 -27 -14 -29
-13 -24 12 8 51 -44 73 -70 30 -13 -24 -13 -31 -1 -52 7 -14 13 -21 14 -16 0
4 11 1 25 -8 25 -17 47 -11 80 19 16 14 35 73 35 107 0 35 -45 98 -71 98 -10
0 -20 4 -23 8 -8 14 -89 7 -121 -10 -42 -23 -77 -63 -74 -84 2 -11 0 -25 -4
-32 -5 -6 -5 -12 0 -12 4 0 8 -11 8 -25 0 -14 -3 -25 -8 -25 -12 0 22 -62 52
-94 23 -25 47 -39 76 -46 6 -1 18 -6 29 -12 36 -19 71 -16 128 13 31 16 65 40
75 55 10 14 30 40 44 57 14 18 29 44 33 60 3 15 10 27 14 27 4 0 6 27 5 59 -3
101 -59 183 -161 235 -59 30 -67 39 -47 56 8 7 12 16 10 21 -5 8 34 4 42 -5 3
-2 0 -13 -6 -25 -12 -22 -1 -34 23 -25 15 6 18 13 20 59 1 13 9 21 25 23 31 5
46 -11 28 -29 -8 -8 -13 -22 -11 -31 1 -10 -4 -22 -12 -28 -10 -9 -11 -15 -1
-25 6 -7 18 -10 25 -8 24 10 56 89 54 135 0 10 0 18 1 18 1 1 20 3 42 6 33 5
38 3 28 -7 -7 -7 -13 -23 -13 -35 0 -13 -5 -26 -10 -29 -6 -4 -8 -10 -5 -15 3
-5 -5 -28 -18 -52 -35 -64 -15 -106 28 -58 16 17 19 18 40 4 23 -15 28 -45 11
-72 -5 -8 6 -25 30 -47 21 -19 40 -35 43 -35 9 0 37 20 29 20 -4 0 4 16 17 37
l25 36 -35 35 c-32 32 -33 36 -20 56 20 28 19 79 -3 99 -10 9 -32 15 -52 14
-27 -1 -34 2 -31 13 2 8 5 25 6 37 1 21 103 123 123 123 5 0 27 17 48 38 63
63 73 40 22 -52 -5 -10 -12 -30 -14 -44 -3 -14 -14 -37 -24 -52 -11 -15 -17
-30 -14 -32 2 -3 0 -17 -5 -32 -7 -17 -7 -26 -1 -26 15 0 52 39 46 49 -3 4 1
8 8 8 13 0 13 -8 -1 -47 -12 -30 -12 -49 -3 -55 6 -3 10 -15 10 -26 0 -11 22
-42 49 -70 40 -41 54 -49 84 -49 26 0 39 6 47 21 11 19 9 20 -30 16 -65 -7
-113 47 -124 139 -1 11 -6 25 -10 32 -4 7 -3 12 3 12 6 0 14 12 17 27 4 16 9
33 13 38 3 6 7 17 8 26 6 37 80 148 144 214 58 61 89 102 89 118 0 11 -28 0
-46 -18 -19 -18 -19 -18 -22 4 -2 12 2 29 9 37 10 12 9 13 -4 9 -8 -4 -18 -1
-23 6 -4 7 -2 15 4 17 7 2 10 8 6 13 -8 14 20 11 55 -7 17 -9 28 -20 25 -26
-4 -7 -2 -8 4 -4 14 8 2 38 -31 73 -28 31 -42 29 -67 -12 -12 -19 -25 -35 -28
-35 -4 0 -18 -17 -32 -38 -26 -39 -193 -212 -205 -212 -4 0 -23 -14 -42 -30
-18 -16 -38 -30 -43 -30 -6 0 -10 -6 -10 -13 0 -15 -56 -41 -70 -32 -5 3 -10
2 -10 -3 0 -9 -85 -52 -112 -56 -10 -1 -21 -5 -24 -9 -9 -9 -59 -9 -67 0 -9 9
22 43 40 43 7 0 22 6 33 12 16 10 22 10 32 -5 12 -16 14 -16 32 8 10 14 23 25
28 25 5 0 25 12 44 26 19 15 37 24 40 21 3 -3 20 10 36 29 17 19 33 32 36 29
8 -7 162 146 162 161 0 6 11 21 24 33 14 13 30 37 37 54 7 18 22 41 34 52 11
11 30 37 40 58 30 58 38 61 74 26 22 -21 38 -28 51 -24 29 9 25 23 -25 76 -45
48 -48 62 -28 124 4 11 8 22 8 25 1 3 7 19 15 35 16 38 31 92 35 128 2 15 7
33 12 40 6 7 9 28 8 47 -1 19 3 46 10 60 15 34 12 278 -4 308 -6 12 -10 26 -7
31 3 5 -1 14 -8 21 -8 6 -13 20 -11 31 2 10 0 19 -6 19 -5 0 -9 6 -9 13 0 7
-16 29 -37 48 -20 18 -33 29 -29 22 8 -14 -10 -27 -19 -13 -4 6 -17 1 -35 -11
-39 -29 -59 -15 -25 18 14 14 25 31 25 37 0 6 11 25 25 41 20 24 26 27 34 16
6 -10 5 -21 -5 -35 -19 -27 -18 -36 5 -36 11 0 21 9 25 22 8 32 30 8 31 -35 1
-25 5 -32 20 -32 16 0 20 7 21 35 1 19 2 43 3 52 0 10 18 26 39 37 l39 20 21
-37 20 -37 -21 -16 c-12 -9 -35 -19 -51 -23 -15 -4 -26 -10 -23 -13 4 -3 2
-14 -4 -24 -7 -14 -6 -19 2 -19 7 0 9 -10 6 -26 -2 -14 1 -31 9 -38 8 -8 12
-32 10 -62 -1 -27 2 -60 7 -74 15 -39 15 -73 2 -100 -11 -20 -10 -27 2 -38 11
-11 11 -17 3 -28 -7 -7 -13 -28 -14 -46 -1 -17 -7 -33 -12 -35 -5 -2 -8 -29
-7 -60 1 -31 -2 -64 -8 -74 -6 -11 -5 -19 2 -21 6 -2 1 -14 -10 -27 -24 -27
-26 -37 -11 -46 8 -5 7 -11 -1 -21 -6 -8 -9 -23 -6 -34 3 -10 -1 -24 -8 -30
-8 -6 -12 -17 -9 -24 3 -7 -4 -22 -15 -35 -19 -22 -19 -51 0 -51 7 0 51 74 54
90 0 3 6 15 13 26 6 12 9 24 5 27 -6 6 14 92 26 112 3 6 6 30 7 55 0 25 4 59
9 75 4 17 9 51 10 77 1 26 6 53 11 60 5 7 9 42 8 78 -2 36 2 77 8 93 8 22 7
31 -5 45 -20 22 -42 87 -42 122 0 19 6 26 25 28 33 5 61 41 53 70 -3 13 -1 22
6 22 15 0 1 25 -36 65 -27 29 -61 39 -74 22 -3 -4 -14 -9 -25 -11 -10 -2 -32
-9 -47 -15 -23 -9 -31 -8 -49 8 -11 11 -34 25 -52 31 -17 6 -39 16 -48 21 -37
19 -72 -1 -74 -45 -1 -12 -2 -29 -3 -38 -2 -27 -85 -103 -128 -117 -36 -12
-43 -11 -68 5 -19 12 -30 15 -32 7 -5 -14 -66 -1 -87 18 -56 51 -68 67 -56 74
6 4 4 15 -5 28 -7 12 -14 38 -13 57 1 63 -1 70 -21 70 -16 0 -19 -6 -17 -32 4
-45 -2 -58 -28 -58 -21 0 -46 -38 -46 -70 0 -9 -5 -21 -12 -28 -7 -7 -9 -12
-5 -12 4 0 3 -9 -3 -21 -6 -11 -13 -28 -15 -37 -2 -9 -6 -25 -10 -34 -5 -11
-2 -16 9 -14 20 3 37 19 40 37 4 24 18 64 25 69 3 3 13 21 22 40 l16 35 20
-42 c13 -25 17 -46 12 -55 -5 -7 -9 -8 -9 -3 -1 10 -31 -51 -35 -70 -1 -5 -3
-12 -4 -15 -2 -3 -4 -13 -6 -22 -3 -15 0 -16 16 -8 20 11 55 69 51 84 -6 18
23 25 40 9 16 -14 16 -17 0 -41 -9 -14 -16 -26 -14 -27 2 0 1 -12 -3 -27 -7
-29 -25 -39 -25 -14 0 27 -25 22 -56 -11 -30 -33 -36 -34 -81 -16 -10 3 -20 7
-23 7 -3 1 -22 17 -43 36 -22 19 -50 35 -64 36 -35 1 -45 23 -25 50 21 28 63
53 80 47 7 -3 23 2 36 10 18 12 22 22 18 46 -5 35 22 99 49 118 9 7 22 26 27
43 15 42 -5 40 -50 -7z m609 -126 c-1 -5 -11 -11 -20 -13 -14 -2 -15 1 -6 17
10 20 33 16 26 -4z m-27 -59 c0 -7 -11 -31 -24 -54 -15 -28 -20 -47 -15 -61 5
-14 2 -27 -11 -40 -9 -11 -21 -29 -24 -41 -4 -12 -12 -22 -17 -22 -5 0 -8 -3
-7 -7 2 -10 -7 -35 -31 -88 -13 -28 -18 -62 -17 -113 1 -64 -2 -75 -21 -92
-12 -11 -25 -32 -29 -47 -4 -15 -11 -33 -16 -40 -6 -7 -8 -18 -6 -25 3 -7 -6
-28 -19 -47 -23 -33 -23 -36 -7 -48 15 -11 21 -10 35 3 10 9 17 19 17 23 -2 7
9 47 22 76 5 11 11 32 14 48 4 15 13 27 21 27 18 0 19 -12 3 -28 -9 -9 -9 -12
2 -12 7 0 10 -3 7 -7 -4 -3 0 -17 8 -29 14 -22 13 -25 -12 -49 -15 -14 -24
-25 -19 -25 5 0 2 -8 -5 -17 -12 -15 -12 -16 1 -8 12 6 12 5 3 -5 -6 -7 -9
-19 -6 -27 4 -11 -1 -13 -23 -7 -16 4 -30 10 -32 13 -4 10 -73 4 -85 -8 -30
-30 -36 -1 -7 39 11 15 17 30 14 33 -3 3 -2 12 2 19 13 20 34 81 34 101 0 9 5
17 10 17 6 0 10 15 10 34 0 19 5 38 10 41 6 4 8 10 6 13 -2 4 4 25 14 47 11
22 19 48 20 57 0 9 5 20 10 23 6 4 10 14 9 23 -3 21 18 72 37 93 8 8 16 29 18
46 1 16 6 35 10 42 4 6 5 11 2 11 -2 0 -11 3 -20 6 -17 6 -55 -59 -51 -88 2
-9 -3 -22 -11 -29 -8 -6 -11 -15 -8 -20 3 -6 -4 -26 -15 -45 -12 -20 -20 -41
-19 -47 1 -7 -3 -22 -10 -35 -7 -12 -10 -27 -7 -32 4 -6 -1 -13 -10 -16 -9 -4
-14 -13 -11 -21 4 -8 3 -20 -1 -26 -15 -23 -33 -83 -33 -109 0 -16 -3 -28 -7
-28 -8 0 -46 -83 -50 -110 -1 -8 -6 -16 -11 -18 -5 -1 -6 -16 -4 -32 2 -17 0
-30 -5 -30 -6 0 -18 -15 -28 -34 -15 -27 -16 -38 -7 -49 9 -11 8 -18 -8 -32
-11 -10 -20 -26 -20 -36 0 -10 -4 -21 -10 -24 -5 -3 -10 -16 -10 -29 0 -12 -3
-26 -7 -30 -8 -8 -9 -13 -12 -41 -2 -27 -28 -27 -54 -1 -18 18 -37 26 -62 26
-39 0 -42 6 -20 36 8 10 15 28 15 39 0 12 5 26 11 32 8 8 8 17 1 29 -7 13 -6
22 4 32 38 37 0 43 -56 7 -38 -24 -100 -92 -90 -98 3 -2 -3 -12 -14 -22 -16
-16 -20 -17 -30 -4 -48 62 -179 44 -209 -30 -18 -44 -18 -182 0 -188 7 -3 9
-11 6 -19 -3 -8 0 -14 6 -14 6 0 11 -6 11 -14 0 -8 23 -35 51 -60 29 -26 49
-49 46 -52 -5 -5 -78 28 -101 47 -60 47 -86 74 -82 84 2 7 0 17 -4 21 -5 5
-11 18 -13 29 -1 11 -7 27 -12 35 -13 21 -13 41 2 71 7 15 10 36 8 48 -2 11 0
21 6 21 5 0 9 6 9 13 0 7 23 35 50 62 49 48 53 50 112 52 42 1 65 -3 75 -13
11 -11 19 -11 35 -3 26 14 108 98 108 110 0 5 7 9 15 9 24 0 55 42 55 75 0 18
3 35 7 39 4 3 8 16 10 28 2 12 8 25 14 29 12 7 8 41 -6 52 -6 5 -4 12 7 20 24
19 28 67 5 67 -25 0 -36 21 -25 46 17 36 38 30 38 -10 0 -19 4 -37 9 -40 13
-8 34 21 28 38 -8 20 19 28 33 10 7 -8 20 -14 29 -14 14 -1 14 -2 -2 -14 -15
-12 -40 -72 -37 -91 0 -3 -7 -19 -15 -35 -9 -17 -13 -30 -10 -30 2 0 -7 -20
-21 -45 -14 -26 -20 -45 -13 -45 8 0 7 -5 -2 -16 -19 -23 -39 -84 -32 -99 5
-14 34 -29 31 -17 -2 10 23 61 46 95 10 15 16 35 13 46 -2 10 0 27 6 37 6 10
12 28 12 38 1 11 7 22 12 23 6 2 9 12 6 22 -3 10 0 22 6 25 6 4 11 18 11 32 0
13 5 24 10 24 6 0 10 10 10 23 0 12 11 33 23 47 29 32 77 64 77 50 0 -6 -7
-13 -15 -16 -8 -4 -12 -10 -9 -15 3 -5 0 -9 -6 -9 -6 0 -8 -5 -5 -10 4 -6 1
-17 -5 -25 -7 -8 -9 -15 -5 -15 5 0 1 -8 -8 -18 -10 -10 -14 -21 -11 -25 4 -3
-5 -25 -18 -49 -14 -24 -24 -52 -22 -63 1 -10 -1 -24 -5 -30 -4 -5 -13 -29
-21 -52 -7 -24 -17 -43 -22 -43 -4 0 -8 -11 -8 -24 0 -14 -5 -28 -11 -31 -5
-4 -8 -12 -6 -18 2 -7 -2 -24 -10 -39 -7 -15 -13 -30 -13 -33 0 -3 -7 -19 -15
-36 -9 -17 -14 -36 -12 -42 2 -7 -3 -17 -10 -22 -8 -6 -11 -18 -8 -28 9 -22
49 -16 53 9 5 36 26 99 43 131 10 17 15 34 12 37 -3 3 5 21 17 41 12 19 19 42
16 50 -3 8 -1 15 4 15 6 0 10 4 10 9 0 5 5 22 12 38 6 15 12 34 14 42 5 24 26
71 33 71 3 0 7 10 7 23 2 29 8 49 17 64 5 7 10 22 12 33 2 12 11 35 20 53 24
46 56 134 53 143 -1 5 8 31 21 58 17 37 20 51 10 56 -7 5 -17 6 -23 4 -16 -6
-36 -53 -29 -70 3 -8 0 -14 -6 -14 -6 0 -11 -8 -11 -17 0 -10 -4 -24 -9 -31
-6 -11 -11 -10 -25 3 -16 16 -18 16 -35 1 -16 -15 -20 -14 -54 17 -20 18 -37
36 -37 41 0 5 14 24 30 43 17 19 28 38 25 43 -12 19 53 35 67 16 12 -17 99
-14 150 5 67 24 111 60 123 100 7 21 35 26 35 7z m130 -263 c7 -8 10 -23 8
-33 -3 -10 1 -27 8 -37 21 -28 17 -42 -16 -61 -22 -14 -29 -24 -25 -42 2 -14
-2 -25 -10 -28 -7 -3 -12 -14 -10 -25 2 -11 -2 -19 -10 -19 -16 0 -28 27 -15
35 6 4 10 17 10 30 0 13 11 36 24 52 13 16 26 37 28 48 5 30 -27 30 -40 0 -6
-14 -16 -25 -22 -25 -6 0 -9 -4 -6 -8 3 -5 -2 -21 -10 -37 -8 -16 -14 -41 -13
-55 2 -29 -14 -75 -31 -85 -8 -5 -7 -13 3 -28 8 -12 13 -32 11 -44 -2 -12 1
-25 6 -28 6 -3 10 -17 10 -31 0 -13 3 -24 8 -24 15 0 33 -41 23 -53 -5 -7 -11
-29 -13 -50 -4 -50 -18 -49 -45 4 -12 24 -26 49 -31 54 -5 6 -8 27 -7 45 2 19
-3 42 -10 50 -14 17 -14 72 1 92 6 7 9 36 8 63 -1 37 6 66 27 112 16 34 29 69
29 77 0 9 4 16 8 16 5 0 14 11 20 25 13 29 61 35 82 10z m9 -298 c-5 -17 -14
-34 -21 -39 -9 -5 -10 -8 -1 -8 13 0 9 -40 -5 -49 -5 -3 -8 -14 -6 -23 3 -23
-16 -35 -27 -17 -17 27 -10 83 12 97 12 7 18 16 15 19 -3 3 0 15 6 27 7 11 11
24 10 28 -1 4 5 5 12 2 11 -4 12 -13 5 -37z m-1505 18 c2 -6 -4 -11 -13 -12
-9 -1 -35 -5 -58 -9 -30 -4 -43 -3 -43 5 0 6 10 11 23 11 12 0 28 4 36 9 19
12 49 10 55 -4z m217 -5 c3 -8 0 -24 -7 -36 -8 -11 -11 -24 -7 -27 7 -8 -25
-47 -39 -47 -5 0 -12 8 -15 18 -4 9 -13 23 -20 30 -18 19 -16 30 7 37 11 4 17
11 14 17 -4 6 -1 14 6 18 19 12 54 6 61 -10z m112 -30 c19 -16 41 -30 48 -30
9 0 10 -3 3 -8 -17 -11 -36 -51 -29 -62 11 -18 35 -10 47 15 9 19 18 25 40 23
30 -2 34 -8 17 -25 -9 -9 -8 -16 5 -28 19 -20 40 -10 33 15 -3 11 1 21 9 24 8
3 14 1 14 -3 0 -5 9 -7 20 -4 21 5 28 -11 10 -22 -6 -4 -8 -10 -6 -14 8 -13
-24 -51 -43 -51 -9 0 -22 5 -29 12 -6 6 -28 11 -49 10 -32 -1 -123 31 -123 44
0 3 7 15 15 28 22 33 26 63 10 70 -15 5 -19 1 -47 -54 -22 -42 -23 -56 -3 -64
30 -11 15 -42 -17 -37 -5 0 -8 -3 -8 -8 0 -15 -29 -21 -42 -8 -7 7 -21 12 -30
12 -10 0 -18 5 -18 10 0 6 9 10 20 10 19 0 57 41 47 51 -3 3 1 17 8 31 7 14
11 32 8 39 -3 8 0 14 7 14 7 0 10 6 7 14 -14 37 33 34 76 -4z m442 -27 c-4
-10 -10 -28 -12 -41 -3 -12 -9 -25 -14 -28 -5 -3 -9 -13 -9 -23 0 -21 -22 -71
-32 -71 -4 0 -13 6 -20 13 -7 8 -25 12 -38 10 -29 -4 -15 13 15 19 12 2 21 13
23 26 2 12 7 22 12 22 4 0 7 16 6 35 -1 27 3 35 16 35 9 0 20 5 23 10 3 6 13
10 22 10 11 0 13 -5 8 -17z m-105 -25 c0 -2 -7 -21 -14 -43 -16 -46 -35 -61
-62 -51 -17 6 -17 9 -4 19 8 7 15 23 15 37 0 17 7 26 25 31 29 8 40 10 40 7z
m624 -141 c19 -19 38 -58 32 -65 -3 -3 -6 -1 -6 5 0 5 -16 18 -35 29 -36 19
-47 44 -19 44 8 0 21 -6 28 -13z m-13 -94 c27 -14 49 -30 49 -35 0 -4 6 -8 14
-8 21 0 29 -17 16 -32 -34 -42 -70 -92 -70 -100 0 -5 -11 -20 -25 -34 -14 -14
-25 -30 -25 -36 0 -9 -4 -8 -12 0 -10 10 -10 15 1 21 8 5 15 22 16 39 3 36 23
61 46 55 9 -3 19 2 22 10 6 16 -12 37 -35 41 -7 1 -18 5 -24 8 -6 4 -25 10
-43 13 -23 4 -33 1 -37 -10 -3 -8 -9 -13 -14 -10 -4 2 -14 -1 -22 -8 -20 -17
-62 -87 -51 -87 16 0 13 -55 -7 -110 -25 -68 -25 -80 0 -80 13 0 20 7 20 20 0
11 5 30 12 43 24 46 26 54 24 97 -1 25 4 51 10 57 7 7 14 18 16 25 3 7 21 13
42 14 29 2 35 -1 26 -11 -6 -7 -10 -17 -8 -21 1 -5 -3 -19 -10 -31 -7 -13 -10
-23 -7 -23 3 0 -1 -13 -9 -28 -10 -20 -11 -33 -4 -46 8 -14 4 -24 -18 -47 -15
-16 -36 -31 -46 -35 -10 -3 -16 -10 -12 -15 3 -5 -15 -18 -39 -29 -24 -11 -50
-27 -57 -35 -7 -8 -16 -13 -20 -10 -4 2 -24 -5 -46 -15 -21 -11 -46 -20 -55
-20 -10 0 -19 -6 -22 -12 -2 -7 -8 -10 -12 -6 -5 5 -2 27 6 50 7 24 14 48 14
53 0 6 5 17 10 25 5 8 10 20 10 25 1 10 6 22 26 73 5 13 9 33 9 45 0 12 9 37
20 54 11 18 17 39 14 48 -4 8 -1 15 5 15 6 0 10 8 8 18 -1 9 1 18 6 20 4 1 7
0 7 -3 -1 -12 26 -32 42 -32 10 0 20 9 24 19 12 39 86 93 127 91 9 0 17 4 17
8 0 15 20 10 71 -18z m-542 -99 c-10 -19 -17 -39 -14 -44 3 -5 1 -12 -5 -15
-6 -4 -8 -16 -4 -28 11 -37 34 -57 64 -53 36 4 47 -3 51 -33 3 -18 -3 -28 -26
-41 -27 -15 -32 -15 -55 -2 -14 9 -37 29 -53 45 -24 26 -27 36 -24 83 4 51 25
97 56 121 27 19 31 4 10 -33z m-143 -75 c45 -44 52 -83 19 -103 -11 -6 -20
-15 -20 -21 0 -5 -9 -36 -19 -69 -13 -40 -16 -63 -10 -73 14 -22 28 -21 32 2
2 11 11 36 20 55 9 19 17 45 17 57 1 32 12 39 33 20 9 -9 27 -25 39 -36 12
-11 40 -21 66 -24 39 -3 47 0 57 18 6 12 18 22 25 22 10 0 10 -7 -3 -34 -9
-18 -20 -33 -24 -33 -5 0 -6 -5 -2 -11 3 -6 1 -22 -7 -35 -11 -21 -10 -26 6
-38 18 -13 18 -14 -2 -24 -11 -6 -23 -9 -26 -6 -2 3 -21 -2 -41 -10 -20 -8
-36 -12 -36 -7 0 4 -16 5 -35 3 -40 -5 -42 -1 -16 36 23 33 37 107 22 117 -18
10 -43 -23 -40 -53 6 -59 -37 -84 -95 -55 -44 23 -97 78 -99 105 -1 12 -9 32
-19 42 -20 22 -14 40 10 31 9 -3 13 -3 9 1 -4 4 -1 17 6 28 24 37 38 103 26
121 -4 6 8 11 29 12 31 2 44 -5 78 -38z m-136 -4 c0 -12 -24 -55 -32 -55 -12
0 -10 34 4 48 12 12 28 16 28 7z m988 -207 c-2 -7 -9 -19 -16 -27 -8 -8 -12
-25 -9 -37 2 -15 -3 -30 -15 -41 -23 -20 -78 -100 -78 -112 0 -5 -6 -14 -14
-20 -18 -15 -27 6 -14 32 10 19 2 40 -13 32 -22 -14 -5 9 46 61 30 31 55 62
55 68 0 9 47 56 57 56 1 0 2 -6 1 -12z m-1188 -198 c0 -11 5 -20 10 -20 6 0
10 -6 10 -13 0 -7 9 -19 20 -27 19 -14 30 -57 11 -46 -4 3 -13 -6 -19 -19 -19
-42 -31 -28 -31 36 0 34 -4 66 -10 72 -14 14 -14 37 -1 37 6 0 10 -9 10 -20z
m1033 -89 c-6 -22 -33 -37 -33 -18 0 14 20 37 31 37 4 0 5 -9 2 -19z m-196
-238 c-22 -22 -31 -26 -45 -17 -9 6 -18 19 -20 28 -3 13 5 16 45 16 l48 0 -28
-27z m33 -123 c0 -4 -7 -13 -15 -20 -13 -10 -19 -10 -35 5 -11 10 -18 21 -15
25 5 9 65 0 65 -10z"/>
<path d="M1609 2158 c-5 -13 -16 -34 -24 -47 -15 -27 -12 -41 9 -41 18 0 49
37 42 49 -4 5 -2 12 4 16 16 10 12 45 -5 45 -9 0 -20 -10 -26 -22z"/>
<path d="M1587 1323 c-4 -8 -17 -54 -39 -135 -7 -27 -15 -48 -19 -48 -4 0 -6
-8 -4 -17 1 -10 -2 -24 -8 -30 -13 -18 -17 -72 -4 -80 6 -3 7 -1 3 5 -4 7 -1
12 8 12 9 0 19 12 22 28 4 15 14 41 22 57 9 17 16 42 15 58 0 15 4 27 8 27 5
0 9 11 9 25 0 14 4 25 9 25 6 0 10 8 10 18 -1 9 2 27 6 40 6 18 4 22 -13 22
-12 0 -23 -3 -25 -7z"/>
<path d="M1116 1268 c-15 -22 -45 -90 -47 -105 -2 -14 -10 -38 -18 -53 -10
-21 -3 -47 15 -54 9 -4 14 1 14 14 0 11 4 20 8 20 5 0 15 19 22 43 8 23 17 47
22 53 4 6 6 20 3 32 -2 11 3 26 10 32 14 12 10 40 -6 40 -5 0 -15 -10 -23 -22z"/>
<path d="M1314 1054 c-4 -16 -9 -33 -13 -39 -8 -15 -11 -38 -6 -52 6 -19 35
-4 35 18 0 11 7 30 15 43 14 21 13 24 -4 40 -19 18 -20 17 -27 -10z"/>
<path d="M901 2338 c-10 -3 -28 -22 -40 -41 -27 -43 -17 -78 30 -106 33 -20
43 -19 84 13 20 16 20 16 -5 37 l-24 21 -9 -26 c-11 -32 -34 -24 -35 13 0 21
6 31 24 40 22 10 28 7 64 -29 39 -39 40 -41 26 -68 -20 -38 -38 -52 -67 -50
-13 0 -30 0 -36 -1 -15 -1 -18 -50 -3 -52 6 -1 16 -2 23 -3 19 -3 80 30 106
57 44 47 32 132 -26 181 -22 19 -79 27 -112 14z"/>
<path d="M1252 2238 c-18 -18 -15 -23 14 -26 19 -1 25 2 22 15 -4 21 -21 26
-36 11z"/>
<path d="M1703 750 c3 -11 0 -26 -7 -33 -6 -6 -11 -18 -10 -24 1 -7 2 -19 3
-27 1 -9 8 -12 20 -9 12 3 17 12 15 28 -1 13 4 26 11 29 7 2 12 13 10 23 -2
10 -4 21 -4 26 -1 4 -11 7 -22 7 -16 0 -20 -5 -16 -20z"/>
<path d="M924 693 c-6 -10 -9 -28 -8 -40 2 -13 -1 -23 -6 -23 -7 0 -7 -8 1
-22 l11 -21 19 24 c10 13 19 32 19 41 0 9 5 18 11 20 16 5 -1 38 -20 38 -9 0
-21 -8 -27 -17z"/>
<path d="M1010 670 c-19 -12 -25 -80 -6 -80 8 0 18 10 22 23 4 12 10 24 14 27
15 9 -15 39 -30 30z"/>
<path d="M1916 651 c-26 -28 -32 -50 -27 -107 1 -10 20 -20 59 -29 7 -2 22 6
32 18 19 19 19 22 3 39 -9 10 -24 18 -34 18 -18 0 -35 17 -26 26 3 3 24 7 47
9 55 4 77 -17 74 -72 -1 -22 -7 -50 -14 -63 -7 -13 -8 -26 -3 -31 12 -12 45 0
37 12 -3 6 -1 16 5 23 19 23 17 90 -3 128 -15 27 -29 37 -62 46 -59 16 -56 16
-88 -17z"/>
<path d="M1365 261 c-3 -5 0 -13 6 -17 7 -4 9 -3 5 4 -3 5 0 13 6 15 9 4 10 6
1 6 -6 1 -14 -3 -18 -8z"/>
</g>
</svg>
